<svg width="215.9124328613281px" height="120.8px" xmlns="http://www.w3.org/2000/svg" viewBox="142.04378356933594 14.600000000000001 215.9124328613281 120.8" style="background: none;" preserveAspectRatio="xMidYMid"><defs><filter id="editing-extrusion" x="-100%" y="-100%" width="300%" height="300%"><feFlood result="color1" flood-color="#5d5a58"></feFlood><feConvolveMatrix order="8,8" divisor="1" kernelMatrix="1 0 0 0 0 0 0 0 0 1 0 0 0 0 0 0 0 0 1 0 0 0 0 0 0 0 0 1 0 0 0 0 0 0 0 0 1 0 0 0 0 0 0 0 0 1 0 0 0 0 0 0 0 0 1 0 0 0 0 0 0 0 0 1" in="SourceAlpha" result="extrude"></feConvolveMatrix><feComposite in="color1" in2="extrude" result="comp-extrude" operator="in"></feComposite><feOffset dx="4" dy="4" in="comp-extrude" result="offset-extrude"></feOffset><feMerge><feMergeNode in="offset-extrude"></feMergeNode><feMergeNode in="SourceGraphic"></feMergeNode></feMerge></filter></defs><g filter="url(#editing-extrusion)"><g transform="translate(177.38656067848206, 97.4000015258789)"><path d="M14.14 0L0.51 0L7.81-38.91L8.51-42.24L22.21-42.24L14.14 0ZM40.13-3.78L40.13-3.78L40.13-3.78Q38.40 1.28 31.74 1.28L31.74 1.28L31.74 1.28Q26.82 1.28 23.42-4.61L23.42-4.61L23.42-4.61Q19.97-10.50 19.33-20.10L19.33-20.10L19.33-20.10Q26.37-32.96 31.23-38.27L31.23-38.27L31.23-38.27Q35.90-43.33 40.77-43.33L40.77-43.33L40.77-43.33Q43.39-43.33 45.28-41.92L45.28-41.92L45.28-41.92Q47.17-40.51 47.62-38.27L47.62-38.27L47.62-38.27Q45.44-37.38 44.42-36.67L44.42-36.67L44.42-36.67Q41.86-34.75 38.40-30.46L38.40-30.46L32.58-23.49L32.58-23.49Q31.17-21.82 30.59-21.06L30.59-21.06L30.59-21.06Q31.55-15.68 34.43-10.37L34.43-10.37L34.43-10.37Q37.18-5.31 40.13-3.78ZM73.66 1.28L73.66 1.28L73.66 1.28Q65.47 1.28 64.70-10.37L64.70-10.37L53.70-10.37L53.70-10.37Q52.42-7.42 51.52-4.86L51.52-4.86L49.86 0L40.90 0L61.06-42.24L74.82-42.24L77.50-11.14L77.50-11.14Q78.14-4.42 80.70-2.43L80.70-2.43L80.70-2.43Q78.85 1.28 73.66 1.28ZM59.20-23.17L55.68-15.04L64.51-15.04L63.74-31.49L63.74-33.22L59.20-23.17ZM86.02-39.68L86.02-39.68L86.02-39.68Q87.87-43.52 93.02-43.52L93.02-43.52L93.02-43.52Q98.18-43.52 100.58-40.54L100.58-40.54L100.58-40.54Q102.98-37.57 102.98-30.72L102.98-30.72L102.98-7.87L118.53-42.18L126.14-42.18L106.24 0L91.26 0L89.34-30.72L89.34-30.72Q89.15-34.11 88.22-36.42L88.22-36.42L88.22-36.42Q87.30-38.72 86.02-39.68ZM136.83 0L122.88 0L131.01-42.24L145.09-42.24L136.83 0Z" fill="#ffffff"></path></g></g><style>text {
  font-size: 64px;
  font-family: Arial Black;
  dominant-baseline: central;
  text-anchor: middle;
}</style></svg>